<mxfile host="65bd71144e">
    <diagram id="uPfD5luTiOVUT25oSJCe" name="Page-1">
        <mxGraphModel dx="466" dy="1326" grid="1" gridSize="10" guides="1" tooltips="1" connect="1" arrows="1" fold="1" page="0" pageScale="1" pageWidth="827" pageHeight="1169" math="0" shadow="1">
            <root>
                <mxCell id="0"/>
                <mxCell id="1" parent="0"/>
                <mxCell id="2" value="menu()" style="strokeWidth=3;html=1;shape=mxgraph.flowchart.terminator;whiteSpace=wrap;fillColor=#d80073;fontColor=#ffffff;strokeColor=#A50040;" parent="1" vertex="1">
                    <mxGeometry x="191" y="-620" width="100" height="60" as="geometry"/>
                </mxCell>
                <mxCell id="3" value="" style="edgeStyle=none;html=1;strokeWidth=3;shadow=1;textShadow=1;" parent="1" edge="1">
                    <mxGeometry relative="1" as="geometry">
                        <mxPoint x="239.66" y="-340" as="sourcePoint"/>
                        <mxPoint x="239.66" y="-290" as="targetPoint"/>
                    </mxGeometry>
                </mxCell>
                <mxCell id="4" value="Prompt:&lt;br&gt;&quot;Choose your option: &quot;" style="shape=parallelogram;perimeter=parallelogramPerimeter;whiteSpace=wrap;html=1;fixedSize=1;strokeWidth=3;fillColor=#008a00;fontColor=#ffffff;strokeColor=#005700;" parent="1" vertex="1">
                    <mxGeometry x="160" y="-290" width="160" height="60" as="geometry"/>
                </mxCell>
                <mxCell id="6" value="" style="edgeStyle=none;html=1;strokeWidth=3;shadow=1;textShadow=1;" parent="1" edge="1">
                    <mxGeometry relative="1" as="geometry">
                        <mxPoint x="239.66" y="-230" as="sourcePoint"/>
                        <mxPoint x="239.66" y="-180" as="targetPoint"/>
                    </mxGeometry>
                </mxCell>
                <mxCell id="8" value="menuOption = static_cast&amp;lt;menu&amp;gt;&lt;br&gt;(getValidIntegerInput(&quot;option&quot;, 0, 5))" style="whiteSpace=wrap;html=1;strokeWidth=3;fillColor=#fa6800;fontColor=#FFFFFF;strokeColor=#C73500;" parent="1" vertex="1">
                    <mxGeometry x="140" y="-180" width="200" height="60" as="geometry"/>
                </mxCell>
                <mxCell id="10" value="" style="edgeStyle=none;html=1;strokeWidth=3;shadow=1;textShadow=1;" parent="1" edge="1">
                    <mxGeometry relative="1" as="geometry">
                        <mxPoint x="239.66" y="-120" as="sourcePoint"/>
                        <mxPoint x="239.66" y="-70" as="targetPoint"/>
                    </mxGeometry>
                </mxCell>
                <mxCell id="11" value="" style="edgeStyle=none;html=1;strokeWidth=3;shadow=1;textShadow=1;" parent="1" edge="1">
                    <mxGeometry relative="1" as="geometry">
                        <mxPoint x="290" y="-20.29" as="sourcePoint"/>
                        <mxPoint x="340" y="-20.29" as="targetPoint"/>
                    </mxGeometry>
                </mxCell>
                <mxCell id="12" value="displayRaceFromat(&quot;Group&quot;)" style="shape=process;whiteSpace=wrap;html=1;backgroundOutline=1;strokeWidth=3;fillColor=#0050ef;fontColor=#ffffff;strokeColor=#001DBC;" parent="1" vertex="1">
                    <mxGeometry x="340" y="-50" width="230" height="60" as="geometry"/>
                </mxCell>
                <mxCell id="13" value="" style="edgeStyle=none;html=1;strokeWidth=3;shadow=1;textShadow=1;" parent="1" edge="1">
                    <mxGeometry relative="1" as="geometry">
                        <mxPoint x="239.81" y="30" as="sourcePoint"/>
                        <mxPoint x="239.81" y="80" as="targetPoint"/>
                    </mxGeometry>
                </mxCell>
                <mxCell id="14" value="" style="edgeStyle=none;html=1;strokeWidth=3;shadow=1;textShadow=1;rounded=0;curved=0;" parent="1" edge="1">
                    <mxGeometry relative="1" as="geometry">
                        <mxPoint x="454.71" y="10" as="sourcePoint"/>
                        <mxPoint x="240" y="40" as="targetPoint"/>
                        <Array as="points">
                            <mxPoint x="455" y="40"/>
                        </Array>
                    </mxGeometry>
                </mxCell>
                <mxCell id="16" value="" style="edgeStyle=none;html=1;strokeWidth=3;shadow=1;textShadow=1;" parent="1" edge="1">
                    <mxGeometry relative="1" as="geometry">
                        <mxPoint x="290" y="129.71" as="sourcePoint"/>
                        <mxPoint x="340" y="129.71" as="targetPoint"/>
                    </mxGeometry>
                </mxCell>
                <mxCell id="17" value="displayTrackList()" style="shape=process;whiteSpace=wrap;html=1;backgroundOutline=1;strokeWidth=3;fillColor=#0050ef;fontColor=#ffffff;strokeColor=#001DBC;" parent="1" vertex="1">
                    <mxGeometry x="340" y="100" width="230" height="60" as="geometry"/>
                </mxCell>
                <mxCell id="18" value="" style="edgeStyle=none;html=1;strokeWidth=3;shadow=1;textShadow=1;" parent="1" edge="1">
                    <mxGeometry relative="1" as="geometry">
                        <mxPoint x="239.8" y="180" as="sourcePoint"/>
                        <mxPoint x="239.8" y="230" as="targetPoint"/>
                    </mxGeometry>
                </mxCell>
                <mxCell id="19" value="" style="edgeStyle=none;html=1;strokeWidth=3;shadow=1;textShadow=1;rounded=0;curved=0;" parent="1" edge="1">
                    <mxGeometry relative="1" as="geometry">
                        <mxPoint x="454.71" y="160" as="sourcePoint"/>
                        <mxPoint x="240" y="190" as="targetPoint"/>
                        <Array as="points">
                            <mxPoint x="455" y="190"/>
                        </Array>
                    </mxGeometry>
                </mxCell>
                <mxCell id="21" value="" style="edgeStyle=none;html=1;strokeWidth=3;shadow=1;textShadow=1;" parent="1" edge="1">
                    <mxGeometry relative="1" as="geometry">
                        <mxPoint x="290" y="279.71000000000004" as="sourcePoint"/>
                        <mxPoint x="340" y="279.71000000000004" as="targetPoint"/>
                    </mxGeometry>
                </mxCell>
                <mxCell id="22" value="displayRacingGear()" style="shape=process;whiteSpace=wrap;html=1;backgroundOutline=1;strokeWidth=3;fillColor=#0050ef;fontColor=#ffffff;strokeColor=#001DBC;" parent="1" vertex="1">
                    <mxGeometry x="340" y="250" width="230" height="60" as="geometry"/>
                </mxCell>
                <mxCell id="23" value="" style="edgeStyle=none;html=1;strokeWidth=3;shadow=1;textShadow=1;" parent="1" edge="1">
                    <mxGeometry relative="1" as="geometry">
                        <mxPoint x="239.71000000000004" y="320" as="sourcePoint"/>
                        <mxPoint x="239.71000000000004" y="370" as="targetPoint"/>
                    </mxGeometry>
                </mxCell>
                <mxCell id="24" value="" style="edgeStyle=none;html=1;strokeWidth=3;shadow=1;textShadow=1;rounded=0;curved=0;" parent="1" edge="1">
                    <mxGeometry relative="1" as="geometry">
                        <mxPoint x="454.71" y="310" as="sourcePoint"/>
                        <mxPoint x="240" y="340" as="targetPoint"/>
                        <Array as="points">
                            <mxPoint x="455" y="340"/>
                        </Array>
                    </mxGeometry>
                </mxCell>
                <mxCell id="25" value="menuOption&lt;br&gt;== engine" style="rhombus;whiteSpace=wrap;html=1;strokeWidth=3;fillColor=#1ba1e2;fontColor=#ffffff;strokeColor=#006EAF;" parent="1" vertex="1">
                    <mxGeometry x="190" y="370" width="100" height="100" as="geometry"/>
                </mxCell>
                <mxCell id="26" value="" style="edgeStyle=none;html=1;strokeWidth=3;shadow=1;textShadow=1;" parent="1" edge="1">
                    <mxGeometry relative="1" as="geometry">
                        <mxPoint x="290" y="419.71" as="sourcePoint"/>
                        <mxPoint x="340" y="419.71" as="targetPoint"/>
                    </mxGeometry>
                </mxCell>
                <mxCell id="27" value="displayEngineCapacities(18, &#39;Y&#39;)" style="shape=process;whiteSpace=wrap;html=1;backgroundOutline=1;strokeWidth=3;fillColor=#0050ef;fontColor=#ffffff;strokeColor=#001DBC;" parent="1" vertex="1">
                    <mxGeometry x="340" y="390" width="230" height="60" as="geometry"/>
                </mxCell>
                <mxCell id="28" value="" style="edgeStyle=none;html=1;strokeWidth=3;shadow=1;textShadow=1;" parent="1" edge="1">
                    <mxGeometry relative="1" as="geometry">
                        <mxPoint x="239.71000000000004" y="470" as="sourcePoint"/>
                        <mxPoint x="239.71000000000004" y="520" as="targetPoint"/>
                    </mxGeometry>
                </mxCell>
                <mxCell id="29" value="" style="edgeStyle=none;html=1;strokeWidth=3;shadow=1;textShadow=1;rounded=0;curved=0;" parent="1" edge="1">
                    <mxGeometry relative="1" as="geometry">
                        <mxPoint x="454.71" y="450" as="sourcePoint"/>
                        <mxPoint x="240" y="480" as="targetPoint"/>
                        <Array as="points">
                            <mxPoint x="455" y="480"/>
                        </Array>
                    </mxGeometry>
                </mxCell>
                <mxCell id="30" value="menuOption != start" style="rhombus;whiteSpace=wrap;html=1;strokeWidth=3;fillColor=#6a00ff;fontColor=#ffffff;strokeColor=#3700CC;" parent="1" vertex="1">
                    <mxGeometry x="175" y="520" width="130" height="130" as="geometry"/>
                </mxCell>
                <mxCell id="31" value="" style="edgeStyle=none;html=1;strokeWidth=3;shadow=1;textShadow=1;exitX=0;exitY=0.5;exitDx=0;exitDy=0;rounded=0;curved=0;" parent="1" source="30" edge="1">
                    <mxGeometry relative="1" as="geometry">
                        <mxPoint x="120.00000000000003" y="460" as="sourcePoint"/>
                        <mxPoint x="240" y="-430" as="targetPoint"/>
                        <Array as="points">
                            <mxPoint x="80" y="585"/>
                            <mxPoint x="80" y="-430"/>
                        </Array>
                    </mxGeometry>
                </mxCell>
                <mxCell id="32" value="" style="edgeStyle=none;html=1;strokeWidth=3;shadow=1;textShadow=1;" parent="1" edge="1">
                    <mxGeometry relative="1" as="geometry">
                        <mxPoint x="240.67000000000002" y="650" as="sourcePoint"/>
                        <mxPoint x="240.67000000000002" y="700" as="targetPoint"/>
                    </mxGeometry>
                </mxCell>
                <mxCell id="33" value="End" style="strokeWidth=3;html=1;shape=mxgraph.flowchart.terminator;whiteSpace=wrap;fillColor=#d80073;fontColor=#ffffff;strokeColor=#A50040;" parent="1" vertex="1">
                    <mxGeometry x="191" y="700" width="100" height="60" as="geometry"/>
                </mxCell>
                <mxCell id="34" value="Declare:&lt;br&gt;enum menu {start = 1, fornat 2, track = 3, gear = 4, engine = 5}" style="whiteSpace=wrap;html=1;fillColor=#e51400;fontColor=#ffffff;strokeColor=#B20000;strokeWidth=3;" parent="1" vertex="1">
                    <mxGeometry x="66" y="-510" width="350" height="60" as="geometry"/>
                </mxCell>
                <mxCell id="35" value="" style="edgeStyle=none;orthogonalLoop=1;jettySize=auto;html=1;strokeWidth=3;" parent="1" edge="1">
                    <mxGeometry width="100" relative="1" as="geometry">
                        <mxPoint x="240.71" y="-560" as="sourcePoint"/>
                        <mxPoint x="240.71" y="-510" as="targetPoint"/>
                        <Array as="points"/>
                    </mxGeometry>
                </mxCell>
                <mxCell id="37" value="menuOption&lt;br&gt;== format" style="rhombus;whiteSpace=wrap;html=1;strokeWidth=3;fillColor=#1ba1e2;fontColor=#ffffff;strokeColor=#006EAF;" parent="1" vertex="1">
                    <mxGeometry x="190" y="-70" width="100" height="100" as="geometry"/>
                </mxCell>
                <mxCell id="38" value="menuOption&lt;br&gt;== track" style="rhombus;whiteSpace=wrap;html=1;strokeWidth=3;fillColor=#1ba1e2;fontColor=#ffffff;strokeColor=#006EAF;" parent="1" vertex="1">
                    <mxGeometry x="190" y="80" width="100" height="100" as="geometry"/>
                </mxCell>
                <mxCell id="40" value="menuOption&lt;br&gt;== gear" style="rhombus;whiteSpace=wrap;html=1;strokeWidth=3;fillColor=#1ba1e2;fontColor=#ffffff;strokeColor=#006EAF;" parent="1" vertex="1">
                    <mxGeometry x="190" y="230" width="100" height="100" as="geometry"/>
                </mxCell>
                <mxCell id="41" value="displayMenu()" style="shape=process;whiteSpace=wrap;html=1;backgroundOutline=1;fillColor=#0050ef;fontColor=#ffffff;strokeColor=#001DBC;" vertex="1" parent="1">
                    <mxGeometry x="181" y="-400" width="120" height="60" as="geometry"/>
                </mxCell>
                <mxCell id="42" value="" style="edgeStyle=none;html=1;strokeWidth=3;shadow=1;textShadow=1;" edge="1" parent="1">
                    <mxGeometry relative="1" as="geometry">
                        <mxPoint x="240.51999999999998" y="-450" as="sourcePoint"/>
                        <mxPoint x="240.51999999999998" y="-400" as="targetPoint"/>
                    </mxGeometry>
                </mxCell>
            </root>
        </mxGraphModel>
    </diagram>
</mxfile>